Coordinates
version=1
nRows=14
nColumns=24
inDegrees=yes

Units are S.I. units (second, meters, Newtons, ...)
Angles are in degrees.

endheader
time	pelvis_tilt	pelvis_list	pelvis_rotation	pelvis_tx	pelvis_ty	pelvis_tz	hip_flexion_r	hip_adduction_r	hip_rotation_r	knee_angle_r	ankle_angle_r	subtalar_angle_r	mtp_angle_r	hip_flexion_l	hip_adduction_l	hip_rotation_l	knee_angle_l	ankle_angle_l	subtalar_angle_l	mtp_angle_l	lumbar_extension	lumbar_bending	lumbar_rotation
      3.85500000	    -17.15681464	     -6.00807939	      0.03082256	     -1.55297096	     -0.01733133	     -0.33791482	     23.10462922	     10.48941387	     -2.25326635	    -20.58936393	      7.95160157	    -14.23549106	     -2.38996846	     36.15218723	     -7.99113180	     -2.99539951	    -61.42083486	     -4.42544293	     -7.03494039	     23.32190648	     22.63718781	      3.85440142	    -13.11422667
      3.86000000	    -17.22566456	     -5.58401380	     -0.18409837	     -1.54645540	     -0.01613961	     -0.33740957	     22.24698562	     10.19125911	     -1.80554098	    -19.80461793	      7.96368423	    -14.09585831	     -2.67732466	     36.76871579	     -7.64935740	     -3.40519546	    -60.52333537	     -4.00538485	     -7.20082711	     22.99159929	     22.66594334	      3.51651345	    -12.56933972
      3.86500000	    -17.28003403	     -5.18368567	     -0.41748520	     -1.53997579	     -0.01505699	     -0.33691487	     21.37619009	      9.91005624	     -1.33926426	    -19.01310758	      8.00251721	    -13.92135576	     -2.94485191	     37.35567837	     -7.35890472	     -3.83725252	    -59.58192236	     -3.61057657	     -7.40458725	     22.61793473	     22.67170081	      3.21806578	    -12.01021765
      3.87000000	    -17.32180472	     -4.79226059	     -0.66077979	     -1.53351929	     -0.01405163	     -0.33643520	     20.49979982	      9.62481272	     -0.89219463	    -18.22330608	      8.04018518	    -13.72253594	     -3.20395630	     37.90776934	     -7.10319488	     -4.29673438	    -58.58328961	     -3.24874300	     -7.59725771	     22.19465583	     22.66259002	      2.93382604	    -11.43800688
      3.87500000	    -17.34181520	     -4.43912897	     -0.91447804	     -1.52710387	     -0.01315193	     -0.33598214	     19.60495186	      9.36639945	     -0.44574149	    -17.43067887	      8.09815441	    -13.48434519	     -3.46747351	     38.42578819	     -6.90411304	     -4.75703593	    -57.54978716	     -2.88529777	     -7.77029941	     21.68479942	     22.62216615	      2.69798894	    -10.86395209
      3.88000000	    -17.41023908	     -4.06426504	     -1.13652015	     -1.52067798	     -0.01234108	     -0.33552353	     18.77922073	      9.05958498	     -0.12093644	    -16.64647314	      8.11277220	    -13.24986091	     -3.63057554	     38.97042881	     -6.68682777	     -5.21165618	    -56.43180683	     -2.60672889	     -7.85397208	     21.28397378	     22.64262247	      2.41227784	    -10.34884940
      3.88500000	    -17.45317323	     -3.71436988	     -1.37919322	     -1.51427779	     -0.01162879	     -0.33513076	     17.93275396	      8.76672322	      0.21890795	    -15.86572289	      8.15511588	    -12.98159055	     -3.73546608	     39.46595675	     -6.51745477	     -5.69279429	    -55.26683754	     -2.33258005	     -7.91858018	     20.88719518	     22.63049369	      2.18249113	     -9.80857320
      3.89000000	    -17.46582781	     -3.40511752	     -1.63499895	     -1.50793910	     -0.01101547	     -0.33471087	     17.06442324	      8.50928737	      0.55143742	    -15.08892606	      8.19363770	    -12.68081138	     -3.78959360	     39.91704880	     -6.41042971	     -6.17676822	    -54.06878024	     -2.04395106	     -7.94166814	     20.44332776	     22.57203518	      1.98070388	     -9.26316274
      3.89500000	    -17.49186987	     -3.09262856	     -1.89226291	     -1.50157076	     -0.01048871	     -0.33432638	     16.22480914	      8.23361668	      0.82578066	    -14.32926852	      8.22565443	    -12.37470516	     -3.77089681	     40.34808529	     -6.31522335	     -6.67887137	    -52.80052373	     -1.80346099	     -7.86310896	     20.04065161	     22.53746751	      1.78713225	     -8.73534523
      3.90000000	    -17.53819559	     -2.79206635	     -2.13754778	     -1.49523007	     -0.01007170	     -0.33395109	     15.42641159	      7.95708745	      1.04024960	    -13.58978764	      8.23318417	    -12.05733767	     -3.69980865	     40.78298931	     -6.24312906	     -7.18797619	    -51.47716253	     -1.60887346	     -7.68781882	     19.74288252	     22.52153896	      1.59543258	     -8.22449768
      3.90500000	    -17.54770712	     -2.51724980	     -2.40048842	     -1.48891166	     -0.00976230	     -0.33361703	     14.59462190	      7.69774129	      1.27735050	    -12.85571375	      8.27892315	    -11.71671123	     -3.54124211	     41.15271526	     -6.20878999	     -7.71004882	    -50.11190683	     -1.38378271	     -7.47726548	     19.44042622	     22.45880052	      1.44154070	     -7.70970393
      3.91000000	    -17.58814316	     -2.25716178	     -2.65134305	     -1.48262463	     -0.00955818	     -0.33329425	     13.82628000	      7.44377381	      1.44692284	    -12.16455816	      8.28763693	    -11.37072268	     -3.36978305	     41.53706974	     -6.20000779	     -8.24181091	    -48.69284070	     -1.22536626	     -7.13837498	     19.23837780	     22.42619296	      1.29525809	     -7.21368828
      3.91500000	    -17.56340191	     -2.01047867	     -2.89707343	     -1.47632216	     -0.00941413	     -0.33303510	     12.98158463	      7.18509328	      1.65450434	    -11.45837554	      8.32812121	    -11.01501725	     -3.00990211	     41.81925913	     -6.19505586	     -8.78096940	    -47.22394445	     -1.05587297	     -6.78115642	     18.96464790	     22.32263753	      1.16093861	     -6.74588510
      3.92000000	    -17.63067048	     -1.78602100	     -3.17141595	     -1.47006792	     -0.00947718	     -0.33270638	     12.29170470	      6.96329161	      1.77588535	    -10.84815807	      8.36544079	    -10.64780752	     -2.78894685	     42.17971529	     -6.25587222	     -9.35542959	    -45.71287701	     -0.89083535	     -6.26652184	     18.88949181	     22.31205609	      1.05749654	     -6.24312643
